<?xml version="1.0" encoding="UTF-8"?>
<!DOCTYPE svg PUBLIC "-//W3C//DTD SVG 1.1//EN" "http://www.w3.org/Graphics/SVG/1.1/DTD/svg11.dtd">
<!-- Creator: CorelDRAW X6 -->
<svg xmlns="http://www.w3.org/2000/svg" xml:space="preserve" width="147.327mm" height="40.4873mm" version="1.1" style="shape-rendering:geometricPrecision; text-rendering:geometricPrecision; image-rendering:optimizeQuality; fill-rule:evenodd; clip-rule:evenodd"
viewBox="0 0 14886 4091"
 xmlns:xlink="http://www.w3.org/1999/xlink">
 <defs>
  <style type="text/css">
   <![CDATA[
    .fil4 {fill:black}
    .fil1 {fill:#333333}
    .fil3 {fill:#663333}
    .fil2 {fill:#6699FF}
    .fil5 {fill:#FF6600}
    .fil6 {fill:#333333;fill-rule:nonzero}
    .fil7 {fill:#E6E6E6;fill-rule:nonzero}
    .fil0 {fill:#FF6600;fill-rule:nonzero}
   ]]>
  </style>
 </defs>
 <g id="Camada_x0020_1">
  <metadata id="CorelCorpID_0Corel-Layer"/>
  <path class="fil0" d="M9184 2022l369 0c-37,131 -112,233 -225,307 -113,74 -251,111 -414,111 -200,0 -358,-60 -475,-181 -117,-121 -175,-284 -175,-490 0,-203 58,-363 172,-481 115,-117 272,-176 472,-176 212,0 375,58 490,173 115,115 172,280 172,493 0,24 0,41 0,53 0,12 -2,23 -3,33l-922 0c5,97 32,171 79,220 48,49 117,74 206,74 64,0 116,-11 156,-33 41,-23 73,-57 97,-104zm-538 -374l543 0c-3,-84 -28,-148 -74,-191 -46,-44 -113,-66 -199,-66 -80,0 -143,22 -190,66 -46,44 -73,108 -81,191zm1177 -930l359 0 0 594c46,-65 103,-114 172,-147 69,-33 147,-49 235,-49 167,0 303,62 409,185 106,124 159,284 159,482 0,196 -53,355 -159,476 -106,121 -244,181 -414,181 -89,0 -166,-17 -232,-50 -65,-33 -125,-86 -178,-160l0 168 -351 0 0 -1680zm967 1051c0,-114 -27,-204 -80,-269 -53,-65 -127,-98 -220,-98 -98,0 -174,32 -228,95 -54,63 -81,154 -81,271 0,126 26,222 77,288 52,65 126,98 224,98 100,0 176,-33 228,-99 52,-66 79,-161 79,-287zm1468 253l369 0c-37,131 -112,233 -225,307 -113,74 -251,111 -414,111 -200,0 -358,-60 -475,-181 -117,-121 -175,-284 -175,-490 0,-203 58,-363 172,-481 115,-117 273,-176 472,-176 212,0 375,58 490,173 115,115 172,280 172,493 0,24 0,41 0,53 0,12 -2,23 -3,33l-922 0c5,97 32,171 79,220 48,49 117,74 206,74 64,0 116,-11 156,-33 41,-23 73,-57 97,-104zm-538 -374l543 0c-3,-84 -28,-148 -74,-191 -46,-44 -113,-66 -199,-66 -80,0 -143,22 -190,66 -46,44 -73,108 -81,191zm1169 750l0 -1241 343 0 0 212c48,-85 104,-148 169,-187 65,-40 141,-60 230,-60 14,0 26,0 33,0 8,0 15,1 20,2l1 336 -123 0c-101,0 -177,24 -228,71 -51,47 -76,117 -76,210l0 656 -369 0zm1767 -14c-34,1 -75,2 -121,4 -47,2 -77,3 -90,3 -142,0 -238,-24 -291,-71 -52,-48 -78,-141 -78,-282l0 -671 -182 0 0 -234 182 0 0 -339 367 0 0 339 213 0 0 234 -213 0 0 687c0,33 8,54 24,64 16,11 49,16 99,16l90 0 0 250zm-8158 -1161l0 1199 -835 0 0 -2416 835 0 0 974 688 0 0 -974 835 0 0 2416 -835 0 0 -1199 -688 0z"/>
  <g id="_837821712">
   <polygon class="fil1" points="1972,183 5200,183 5200,3313 1972,3313 1972,3092 39,3092 39,1323 1972,1323 "/>
   <polygon class="fil2" points="4888,398 5042,398 5042,3454 4888,3454 "/>
   <polygon class="fil2" points="4683,396 4837,396 4837,3454 4683,3454 "/>
   <polygon class="fil2" points="4477,396 4631,396 4631,3454 4477,3454 "/>
   <polygon class="fil2" points="3190,2952 3190,3313 2,3313 2,2952 "/>
   <path class="fil3" d="M3251 368l1157 0 0 1426 -1157 0 0 -1426zm1157 1497l0 1401 -1157 0 0 -1401 1157 0z"/>
   <polygon class="fil2" points="5266,0 5266,99 5266,361 5266,3454 5086,3454 5086,361 1571,361 1571,0 "/>
   <polygon class="fil2" points="373,1236 3035,1239 3190,1239 3190,1393 3190,2361 3035,2361 3035,1393 373,1390 "/>
   <g>
    <polygon class="fil4" points="2167,1400 3046,1400 3046,1934 2167,1934 "/>
    <polygon class="fil5" points="2188,1424 3024,1424 3024,1912 2188,1912 "/>
    <polygon class="fil4" points="2167,1908 3046,1908 3046,2442 2167,2442 "/>
    <polygon class="fil5" points="2188,1931 3024,1931 3024,2419 2188,2419 "/>
    <polygon class="fil4" points="2167,2418 3046,2418 3046,2951 2167,2951 "/>
    <polygon class="fil5" points="2188,2441 3024,2441 3024,2929 2188,2929 "/>
   </g>
   <polygon class="fil2" points="258,1077 360,1077 360,2929 258,2929 "/>
   <polygon class="fil2" points="129,1077 232,1077 232,2929 129,2929 "/>
   <path class="fil2" d="M0 1077l103 0 0 1851 -103 0 0 -1851zm103 2261l0 576 -103 0 0 -576 103 0z"/>
  </g>
  <g id="_837859472">
   <path class="fil6" d="M13330 3928l0 -1100 0 -115 115 0 554 0c93,0 176,8 249,24 78,17 145,43 201,78 61,38 107,87 139,145 32,58 48,123 48,196 0,49 -7,94 -21,136 -15,44 -37,84 -66,119 -24,28 -52,52 -85,73l283 377 138 184 -230 0 -484 0 -67 0 -33 -59 -122 -219 0 163 0 115 -115 0 -390 0 -115 0 0 -115zm620 -666c13,-5 23,-11 30,-18l0 0c5,-5 9,-11 12,-18l0 0c4,-11 6,-26 6,-44 0,-29 -6,-48 -17,-58l0 0c-7,-6 -17,-11 -31,-15l0 0 0 153zm-4553 -549l413 0 115 0 0 115 0 671c0,42 3,76 8,102 4,18 9,31 14,39l0 0c3,4 7,6 13,9 12,5 29,7 52,7 24,0 42,-2 54,-7 6,-2 10,-5 13,-8l0 0c6,-7 10,-21 15,-39 6,-25 8,-59 8,-102l0 -671 0 -115 115 0 205 0 105 0 10 0 105 0 1093 0 115 0 0 115 0 166c32,-50 71,-95 119,-136l0 0c71,-61 153,-106 247,-136 91,-29 191,-44 301,-44 107,0 205,17 295,52 91,35 173,87 246,157 74,70 129,149 166,238 37,88 55,184 55,287 0,101 -18,193 -53,275 -36,84 -90,157 -163,219 -70,60 -152,105 -246,135 -91,29 -191,44 -301,44 -107,0 -205,-17 -296,-52 -92,-35 -175,-87 -248,-156 -73,-70 -129,-149 -166,-237 -37,-89 -56,-184 -56,-288 0,-79 11,-152 34,-220l-50 0 -225 0 0 797 0 115 -115 0 -413 0 -115 0 0 -115 0 -797 -225 0 -105 0 0 409c0,85 -13,162 -40,230 -29,72 -72,132 -129,180 -55,46 -123,81 -204,103 -75,21 -160,31 -256,31 -97,0 -183,-10 -258,-30 -81,-22 -149,-56 -204,-101 -57,-47 -99,-108 -127,-180l0 0c-26,-68 -39,-145 -39,-232l0 -712 0 -115 115 0zm3209 681c0,-71 -4,-130 -11,-179 -7,-45 -17,-82 -30,-111l0 0c-9,-19 -18,-32 -28,-39 -6,-4 -15,-7 -26,-7 -8,0 -15,2 -19,5 -8,6 -16,17 -24,34l0 0c-12,25 -21,60 -27,104l0 0c-7,48 -11,106 -11,173 0,71 4,131 11,180 7,46 17,82 31,111l0 0c9,20 19,33 28,40 6,4 14,6 25,6 17,0 31,-13 43,-40l0 0c12,-26 21,-61 28,-105 7,-48 11,-106 11,-174zm-4725 535l0 -797 -119 0 -225 0 0 797 0 115 -115 0 -413 0 -115 0 0 -115 0 -758 2 0 0 -68 -368 0 0 6 -121 0 -134 0c53,17 99,34 138,53 58,27 104,58 138,92l0 0c35,36 62,80 80,131 16,47 25,99 25,155 0,76 -14,146 -43,209 -29,64 -73,119 -132,165 -56,44 -121,77 -196,98 -71,20 -150,30 -237,30l-422 0 -115 0 0 -115 0 -165 0 -115 115 0 337 0c27,0 51,-1 69,-4 -20,-9 -45,-17 -77,-26l0 0 -52 -14 -39 -10 -2 0c-67,-19 -125,-40 -175,-63 -55,-26 -98,-54 -130,-85 -35,-34 -62,-74 -79,-120 -17,-44 -25,-92 -25,-144 0,-75 15,-143 45,-203 30,-61 76,-113 136,-154 56,-39 122,-67 199,-86 72,-17 154,-26 246,-26l331 0 266 0 0 0 1088 0 119 0 0 -1 115 0 554 0c93,0 176,8 249,24 78,17 145,43 201,78 61,38 107,87 139,145 32,58 48,123 48,196 0,49 -7,94 -21,136 -15,44 -37,84 -66,119 -24,28 -52,52 -85,73l283 377 138 184 -230 0 -484 0 -67 0 -33 -59 -122 -219 0 163 0 115 -115 0 -390 0 -115 0 0 -115zm620 -666c13,-5 23,-11 30,-18l0 0c5,-5 9,-11 12,-18l0 0c4,-11 6,-26 6,-44 0,-29 -6,-48 -17,-58l0 0c-7,-6 -17,-11 -31,-15l0 0 0 153zm-3878 316l0 353 0 115 -115 0 -205 0 -115 0 0 -115 0 -922c0,-48 6,-92 18,-130 14,-45 36,-82 66,-113 30,-31 67,-53 110,-68 38,-12 80,-19 128,-19 39,0 76,5 113,15 37,10 72,26 104,46l0 0c31,19 61,44 91,75 28,29 55,62 82,101l0 0 74 105 0 -191 0 -115 115 0 205 0 115 0 0 115 0 958c0,42 -4,79 -12,111l0 0c-10,40 -25,74 -47,101l0 1c-24,30 -56,53 -93,67 -32,12 -67,18 -106,18 -30,0 -60,-5 -90,-14 -29,-9 -57,-23 -81,-40l0 0c-23,-16 -46,-37 -71,-64 -23,-25 -47,-54 -71,-87l-2 -2 -211 -300zm-1981 -42c-49,81 -107,155 -174,219 -77,74 -164,136 -262,186l0 0c-97,50 -203,88 -317,112 -113,25 -233,37 -362,37 -81,0 -161,-5 -240,-16 -78,-10 -153,-26 -224,-47l0 0c-72,-21 -141,-47 -206,-78 -66,-31 -129,-68 -187,-109l0 0c-78,-55 -147,-114 -205,-178 -59,-65 -109,-135 -150,-210 -40,-75 -70,-154 -90,-237 -20,-83 -30,-170 -30,-258 0,-170 33,-326 98,-468 65,-141 162,-267 290,-376l0 0c127,-108 272,-189 435,-243 161,-53 338,-80 532,-80 112,0 217,10 315,29 100,20 193,50 279,90l0 0c86,41 167,92 242,154 75,62 143,134 205,216l75 99 -105 67 -290 185 -104 66 -59 -109c-30,-56 -64,-105 -101,-147 -36,-40 -74,-74 -114,-100l0 0c-40,-26 -83,-45 -129,-58 -46,-13 -97,-19 -152,-19 -82,0 -154,14 -215,41 -59,27 -110,67 -152,121 -45,57 -78,126 -101,208 -24,86 -36,187 -36,303 0,104 13,196 41,278 26,79 65,148 116,207 51,58 109,101 174,130 66,29 142,43 227,43 53,0 102,-7 148,-21 47,-15 92,-36 135,-65l0 0c44,-30 86,-68 125,-113 41,-47 79,-102 114,-165l56 -101 100 57 273 154 1 1c1,-98 19,-188 54,-269 37,-84 91,-157 163,-219l0 0c71,-61 153,-106 247,-136 91,-29 191,-44 301,-44 107,0 205,17 295,52 91,35 173,87 246,157 74,70 129,149 166,238 37,88 55,184 55,287 0,101 -18,193 -53,275 -36,84 -90,157 -163,219 -70,60 -152,105 -246,135 -91,29 -191,44 -301,44 -107,0 -205,-17 -296,-52 -92,-35 -175,-87 -248,-156 -73,-70 -129,-149 -166,-237 -14,-33 -25,-66 -34,-101zm831 -143c0,-71 -4,-130 -11,-179 -7,-45 -17,-82 -30,-111l0 0c-9,-19 -18,-32 -28,-39 -6,-4 -15,-7 -26,-7 -8,0 -15,2 -19,5 -8,6 -16,17 -24,34l0 0c-12,25 -21,60 -27,104l0 0c-7,48 -11,106 -11,173 0,71 4,131 11,180 7,46 17,83 31,111l0 0c9,20 19,33 28,40 6,4 14,6 25,6 17,0 31,-13 43,-40l0 0c12,-26 21,-61 28,-105 7,-48 11,-106 11,-174z"/>
   <path class="fil7" d="M2563 3446c-95,176 -232,310 -409,402 -176,92 -385,139 -627,139 -156,0 -300,-20 -433,-59 -133,-39 -253,-97 -359,-173 -142,-101 -249,-219 -320,-354 -71,-135 -107,-285 -107,-449 0,-313 116,-569 347,-770 232,-200 529,-300 893,-300 209,0 391,37 547,110 155,74 289,188 403,342l-290 188c-69,-130 -154,-229 -254,-294 -100,-65 -214,-98 -343,-98 -197,0 -349,70 -457,210 -108,140 -162,337 -162,593 0,236 62,426 186,570 124,144 286,217 488,217 127,0 243,-36 348,-109 105,-73 196,-180 274,-323l273 157zm1025 -57c0,-152 -18,-267 -52,-343 -35,-76 -88,-115 -159,-115 -66,0 -115,36 -148,109 -33,73 -49,183 -49,330 0,153 18,268 53,345 35,77 88,115 158,115 66,0 115,-37 148,-110 33,-73 49,-184 49,-332zm-202 589c-186,0 -341,-60 -465,-179 -124,-120 -186,-269 -186,-449 0,-172 59,-309 177,-413 118,-103 276,-155 473,-155 185,0 339,60 463,180 124,120 185,270 185,450 0,174 -59,311 -175,414 -117,102 -274,153 -472,153zm1123 -771l0 729 -205 0 0 -938c0,-75 17,-131 51,-165 34,-35 86,-53 156,-53 58,0 110,15 155,44 46,29 92,78 140,147l283 406 0 -561 205 0 0 974c0,67 -11,115 -34,144 -22,28 -60,43 -110,43 -39,0 -73,-11 -105,-34 -32,-23 -71,-65 -117,-128l-420 -608zm1116 729l0 -168 337 0c79,0 133,-9 165,-28 31,-19 46,-50 46,-95 0,-57 -64,-103 -191,-136 -38,-10 -68,-18 -90,-24 -125,-36 -211,-77 -256,-122 -46,-45 -69,-107 -69,-185 0,-117 43,-206 131,-268 87,-62 214,-92 380,-92l331 0 0 168 -286 0c-47,0 -84,7 -110,22 -27,15 -40,35 -40,61 0,47 56,84 167,115 24,7 43,13 56,16 135,39 227,83 275,132 47,50 71,119 71,209 0,123 -43,219 -131,290 -87,70 -208,106 -362,106l-422 0zm1384 0l0 -928 -340 0 0 -191 1093 0 0 191 -340 0 0 928 -413 0zm987 0l0 -1119 554 0c170,0 300,28 389,85 88,56 133,139 133,248 0,75 -20,136 -59,183 -40,47 -99,80 -178,100l372 504 -484 0 -288 -527 0 -20c80,-10 137,-33 174,-68 37,-35 55,-85 55,-150 0,-65 -20,-115 -59,-149 -40,-34 -97,-50 -174,-50 -11,0 -21,0 -27,0 -7,0 -13,1 -19,2l0 962 -390 0zm1401 -1119l413 0 0 683c0,101 16,172 46,214 31,42 83,62 156,62 75,0 128,-21 159,-62 31,-42 46,-113 46,-214l0 -683 205 0 0 724c0,146 -43,255 -128,327 -85,73 -214,109 -385,109 -175,0 -304,-35 -387,-106 -84,-71 -125,-181 -125,-330l0 -724zm1586 1119l0 -928 -340 0 0 -191 1093 0 0 191 -340 0 0 928 -413 0zm1738 -548c0,-152 -18,-267 -52,-343 -35,-76 -88,-115 -159,-115 -66,0 -115,36 -148,109 -33,73 -49,183 -49,330 0,153 18,268 53,345 35,77 88,115 158,115 66,0 115,-37 148,-110 33,-73 49,-184 49,-332zm-202 589c-186,0 -341,-60 -465,-179 -124,-120 -186,-269 -186,-449 0,-172 59,-309 177,-413 118,-103 276,-155 473,-155 185,0 339,60 463,180 124,120 185,270 185,450 0,174 -59,311 -175,414 -117,102 -274,153 -472,153zm926 -41l0 -1119 554 0c170,0 300,28 389,85 88,56 133,139 133,248 0,75 -20,136 -59,183 -40,47 -99,80 -178,100l372 504 -484 0 -288 -527 0 -20c80,-10 137,-33 174,-68 37,-35 55,-85 55,-150 0,-65 -20,-115 -59,-149 -40,-34 -97,-50 -174,-50 -11,0 -21,0 -27,0 -7,0 -13,1 -19,2l0 962 -390 0z"/>
  </g>
 </g>
</svg>
